<svg xmlns="http://www.w3.org/2000/svg" xmlns:xlink="http://www.w3.org/1999/xlink" preserveAspectRatio="xMidYMid" width="150" height="97" viewBox="0 0 150 97">
  <defs>
    <style>
      .cls-1 {
        fill: #72767a;
        fill-rule: evenodd;
      }
    </style>
  </defs>
  <path d="M86.178,42.354 C86.178,44.120 85.735,46.846 85.421,48.481 C81.371,71.142 82.239,94.143 68.933,96.811 C62.421,98.117 57.077,92.436 57.053,86.847 C57.039,83.693 58.904,82.914 59.254,83.877 C61.335,89.630 63.872,90.431 66.770,89.909 C73.232,88.749 76.960,78.649 79.635,54.203 C77.104,62.143 73.488,69.636 69.221,70.492 C67.240,70.888 65.926,70.134 65.135,68.677 C63.996,71.488 62.296,73.726 59.803,74.222 C54.593,75.255 52.932,71.482 52.860,66.568 C51.340,71.288 48.882,75.680 45.554,76.346 C41.069,77.245 38.899,72.751 38.899,66.869 C38.899,63.885 39.446,60.540 40.505,57.327 C36.314,61.711 30.877,65.133 24.300,66.455 C19.601,67.396 17.503,65.756 16.710,63.342 C15.480,71.093 15.341,78.868 15.161,85.273 C10.217,87.458 7.956,83.564 7.956,80.547 C7.956,71.720 15.911,44.891 18.225,37.878 C20.975,37.546 21.843,38.917 21.843,40.903 C21.843,44.141 19.563,48.588 19.023,51.252 C18.551,53.570 17.937,56.255 17.431,59.223 C18.371,60.729 21.265,60.368 23.435,59.932 C38.477,56.915 47.230,43.862 47.230,35.918 C47.230,31.651 44.265,29.010 37.465,30.372 C28.062,32.260 15.624,39.577 8.462,41.013 C4.700,41.769 0.001,40.800 0.001,34.473 C0.001,34.324 0.071,34.164 0.071,34.016 C0.795,34.240 1.953,34.154 3.255,33.893 C10.704,32.397 24.231,25.601 35.948,23.249 C46.144,21.201 50.556,26.421 50.556,34.000 C50.556,37.687 49.654,41.874 47.914,45.999 C49.486,44.803 51.256,43.936 53.219,43.544 C56.619,42.860 59.367,43.632 59.367,45.473 C59.367,45.842 59.225,46.163 59.079,46.559 C58.427,46.028 56.691,45.788 55.176,46.094 C49.748,47.180 44.902,59.557 44.902,66.545 C44.902,68.826 45.480,70.255 46.928,69.964 C49.966,69.355 53.800,60.346 55.392,48.037 C59.367,47.754 60.455,49.154 60.455,51.730 C60.455,54.744 58.355,56.857 58.355,63.625 C58.355,67.303 59.439,68.693 60.887,68.414 C62.292,68.144 63.299,66.726 64.171,64.338 C64.162,64.106 64.157,63.873 64.157,63.635 C64.157,56.573 67.123,44.944 68.499,41.431 L68.568,41.417 C69.292,41.271 73.416,41.915 73.416,44.710 C73.416,45.005 73.344,45.387 73.344,45.608 C72.258,49.137 70.304,57.105 70.304,61.372 C70.304,63.358 70.669,64.611 71.824,64.377 C73.848,63.973 80.069,51.248 81.084,39.201 C85.279,38.359 86.178,39.632 86.178,42.354 ZM149.998,26.343 C150.034,29.528 148.155,33.572 143.520,34.818 C142.149,35.185 140.238,35.654 138.004,36.181 C136.203,53.955 133.626,72.388 125.311,74.060 C121.923,74.741 122.295,71.825 122.295,71.531 C128.828,71.548 129.682,54.490 131.533,37.662 C128.217,38.406 124.688,39.179 121.377,39.888 C119.576,57.595 116.987,75.882 108.708,77.549 C105.318,78.227 105.689,75.313 105.689,75.018 C112.208,75.034 113.074,58.048 114.918,41.257 C111.444,41.983 108.775,42.517 107.749,42.690 C108.032,59.126 99.470,67.017 94.771,67.646 C88.559,68.476 86.092,64.016 86.092,57.763 C86.092,48.934 91.148,35.969 99.039,34.420 C101.729,33.891 102.091,36.945 101.427,37.179 C97.149,38.669 92.673,49.381 92.673,56.296 C92.673,60.196 93.903,62.891 96.651,62.340 C99.691,61.729 102.009,57.882 103.378,54.662 C105.785,49.002 105.807,42.954 105.807,42.954 C101.316,43.194 102.014,40.665 103.740,39.804 C105.203,39.070 109.792,37.589 115.548,35.865 L115.889,33.026 C117.915,18.273 120.880,5.025 127.749,3.648 C131.367,2.920 132.885,4.676 132.885,7.546 C132.885,12.694 128.186,22.908 122.398,29.292 L122.108,31.924 L121.923,33.992 C125.349,33.002 128.914,31.994 132.312,31.047 L132.494,29.538 C134.517,14.786 137.483,1.539 144.355,0.160 C147.972,-0.566 149.490,1.188 149.490,4.060 C149.490,9.208 144.789,19.420 139.003,25.804 L138.713,28.436 L138.636,29.305 C144.781,27.628 149.418,26.421 149.998,26.343 ZM139.365,21.685 C143.849,15.194 146.524,7.964 146.524,4.652 C146.524,3.109 145.944,2.268 144.645,2.529 C141.751,3.111 140.449,11.167 139.365,21.685 ZM122.760,25.173 C127.243,18.680 129.921,11.450 129.921,8.140 C129.921,6.595 129.341,5.755 128.039,6.015 C125.146,6.597 123.846,14.655 122.760,25.173 Z" class="cls-1"/>
</svg>
